<svg xmlns="http://www.w3.org/2000/svg" xmlns:xlink="http://www.w3.org/1999/xlink" width="112.81" height="80.008" viewBox="0 0 112.81 80.008">
  <defs>
    <clipPath id="clip-path">
      <rect id="Rectangle_453" data-name="Rectangle 453" width="112.81" height="80.008" transform="translate(0 0)" fill="none"/>
    </clipPath>
  </defs>
  <g id="footer-logo" transform="translate(0 -0.004)">
    <g id="Group_74" data-name="Group 74" transform="translate(0 0.004)" clip-path="url(#clip-path)">
      <path id="Path_571" data-name="Path 571" d="M575.1,26.99l-4.068,0a24.807,24.807,0,0,0,1.108,5.585l3.487-2.542a20.871,20.871,0,0,1-.528-3.047m-.005-4.056a20.847,20.847,0,0,1,.809-4.086l-3.762-1.554a24.856,24.856,0,0,0-1.113,5.644ZM577.46,15.1a21.066,21.066,0,0,1,2.312-3.461l-2.879-2.872a25.158,25.158,0,0,0-3.195,4.779Zm5.179-6.332a20.982,20.982,0,0,1,3.456-2.316l-1.562-3.761a25.131,25.131,0,0,0-4.773,3.2Zm7.2-3.878a20.947,20.947,0,0,1,4.083-.818l0-4.068a24.889,24.889,0,0,0-5.642,1.124Zm8.14-.823a20.976,20.976,0,0,1,4.086.808l1.552-3.758A24.892,24.892,0,0,0,597.975,0Zm7.833,2.362a21.1,21.1,0,0,1,3.461,2.312l2.871-2.876a25.255,25.255,0,0,0-4.779-3.194Zm6.332,5.178a20.99,20.99,0,0,1,2.319,3.456l3.757-1.56a25.045,25.045,0,0,0-3.205-4.771Zm7.639,5.639-3.759,1.561a20.772,20.772,0,0,1,.817,4.084l4.068,0a24.819,24.819,0,0,0-1.126-5.641m1.129,9.7-4.068,0a20.592,20.592,0,0,1-.528,3.072l3.494,2.534a24.878,24.878,0,0,0,1.1-5.61" transform="translate(-539.554 -0.003)" fill="#fff"/>
      <path id="Path_572" data-name="Path 572" d="M886.668,320.3a3.722,3.722,0,1,1,7.025-.007l3.354,2.432a7.779,7.779,0,1,0-13.726.013Z" transform="translate(-833.761 -294.145)" fill="#fff"/>
      <path id="Path_573" data-name="Path 573" d="M754.52,174.4l2.757-2.009L758.8,173.5a16.182,16.182,0,0,0-.445-6.438l-3.779,1.568a12.28,12.28,0,0,1-.057,5.773m-3.892-17.268-1.563,3.784a12.3,12.3,0,0,1,3.946,3.929l3.783-1.572a16.312,16.312,0,0,0-6.166-6.141m-10.883,2.234a12.285,12.285,0,0,1,5.57,0l1.561-3.783a16.335,16.335,0,0,0-8.7,0Zm-7.674,5.5A12.293,12.293,0,0,1,736,160.926l-1.573-3.784a16.321,16.321,0,0,0-6.143,6.165Zm-4.244,7.522,2.752,2a12.263,12.263,0,0,1-.054-5.766l-3.78-1.561a16.315,16.315,0,0,0-.585,4.345,16.576,16.576,0,0,0,.141,2.1Z" transform="translate(-686.133 -146.453)" fill="#fff"/>
      <path id="Path_574" data-name="Path 574" d="M575.1,26.99l-4.068,0a24.807,24.807,0,0,0,1.108,5.585l3.487-2.542a20.871,20.871,0,0,1-.528-3.047m-.005-4.056a20.847,20.847,0,0,1,.809-4.086l-3.762-1.554a24.856,24.856,0,0,0-1.113,5.644ZM577.46,15.1a21.066,21.066,0,0,1,2.312-3.461l-2.879-2.872a25.158,25.158,0,0,0-3.195,4.779Zm5.179-6.332a20.982,20.982,0,0,1,3.456-2.316l-1.562-3.761a25.131,25.131,0,0,0-4.773,3.2Zm7.2-3.878a20.947,20.947,0,0,1,4.083-.818l0-4.068a24.889,24.889,0,0,0-5.642,1.124Zm8.14-.823a20.976,20.976,0,0,1,4.086.808l1.552-3.758A24.892,24.892,0,0,0,597.975,0Zm7.833,2.362a21.1,21.1,0,0,1,3.461,2.312l2.871-2.876a25.255,25.255,0,0,0-4.779-3.194Zm6.332,5.178a20.99,20.99,0,0,1,2.319,3.456l3.757-1.56a25.045,25.045,0,0,0-3.205-4.771Zm7.639,5.639-3.759,1.561a20.772,20.772,0,0,1,.817,4.084l4.068,0a24.819,24.819,0,0,0-1.126-5.641m1.129,9.7-4.068,0a20.592,20.592,0,0,1-.528,3.072l3.494,2.534a24.878,24.878,0,0,0,1.1-5.61" transform="translate(-539.554 -0.003)" fill="#fff"/>
      <path id="Path_575" data-name="Path 575" d="M886.668,320.3a3.722,3.722,0,1,1,7.025-.007l3.354,2.432a7.779,7.779,0,1,0-13.726.013Z" transform="translate(-833.761 -294.145)" fill="#fff"/>
      <path id="Path_576" data-name="Path 576" d="M754.52,174.4l2.757-2.009L758.8,173.5a16.182,16.182,0,0,0-.445-6.438l-3.779,1.568a12.28,12.28,0,0,1-.057,5.773m-3.892-17.268-1.563,3.784a12.3,12.3,0,0,1,3.946,3.929l3.783-1.572a16.312,16.312,0,0,0-6.166-6.141m-10.883,2.234a12.285,12.285,0,0,1,5.57,0l1.561-3.783a16.335,16.335,0,0,0-8.7,0Zm-7.674,5.5A12.293,12.293,0,0,1,736,160.926l-1.573-3.784a16.321,16.321,0,0,0-6.143,6.165Zm-4.244,7.522,2.752,2a12.263,12.263,0,0,1-.054-5.766l-3.78-1.561a16.315,16.315,0,0,0-.585,4.345,16.576,16.576,0,0,0,.141,2.1Z" transform="translate(-686.133 -146.453)" fill="#fff"/>
      <path id="Path_577" data-name="Path 577" d="M13.72,844.774H5.235v-4.79h9v-4.277H0v23.061H14.713v-4.277H5.235v-5.475H13.72Z" transform="translate(0 -789.641)" fill="#fff"/>
      <rect id="Rectangle_451" data-name="Rectangle 451" width="5.235" height="23.062" transform="translate(18.271 46.065)" fill="#fff"/>
      <path id="Path_578" data-name="Path 578" d="M473.6,850.214c0,3.593-1.369,4.585-3.558,4.585a8.578,8.578,0,0,1-2.669-.411l-.582,4.208a13.575,13.575,0,0,0,3.8.548c5.064,0,8.212-2.292,8.212-8.862V835.706h-5.2Z" transform="translate(-441.06 -789.641)" fill="#fff"/>
      <path id="Path_579" data-name="Path 579" d="M747.362,851.255a15.091,15.091,0,0,0,6.535,1.4c6.33,0,9.307-3.285,9.307-7.151,0-3.25-1.916-5.372-5.988-6.877-2.977-1.129-4.277-1.779-4.277-3.251,0-1.2,1.095-2.224,3.353-2.224a10.963,10.963,0,0,1,4.824,1.095l1.163-4.208a14.13,14.13,0,0,0-5.885-1.163c-5.44,0-8.725,3.011-8.725,6.946,0,3.353,2.5,5.474,6.33,6.809,2.772.992,3.866,1.813,3.866,3.25,0,1.505-1.266,2.5-3.661,2.5a13.3,13.3,0,0,1-5.782-1.437Z" transform="translate(-706.166 -783.189)" fill="#fff"/>
      <rect id="Rectangle_452" data-name="Rectangle 452" width="5.235" height="23.062" transform="translate(60.562 46.065)" fill="#fff"/>
      <path id="Path_580" data-name="Path 580" d="M1280.4,858.768v-6.946c0-3.764-.068-7.014-.205-10.059l.1-.034a85.605,85.605,0,0,0,4,8.143l4.927,8.9h5.474V835.706h-4.79v6.74a85.639,85.639,0,0,0,.445,9.615h-.1a66.866,66.866,0,0,0-3.764-7.9l-4.79-8.451h-6.09v23.062Z" transform="translate(-1205.291 -789.641)" fill="#fff"/>
      <path id="Path_581" data-name="Path 581" d="M1703.909,858.768h5.167V851.24l1.985-2.429,5.646,9.957h6.09l-8.041-13.242,7.63-9.82h-6.4l-5.235,7.664c-.513.821-1.061,1.642-1.574,2.532h-.1v-10.2h-5.167Z" transform="translate(-1609.986 -789.641)" fill="#fff"/>
      <path id="Path_582" data-name="Path 582" d="M197.854,1338.395a3.29,3.29,0,0,0,1.624.406c1.5,0,2.229-.85,2.229-1.832,0-.935-.548-1.455-1.624-1.87-.878-.34-1.266-.633-1.266-1.228,0-.435.331-.954,1.2-.954a2.534,2.534,0,0,1,1.209.3l.227-.671a2.893,2.893,0,0,0-1.407-.312,1.833,1.833,0,0,0-2.059,1.728c0,.9.642,1.436,1.681,1.8.86.33,1.2.671,1.2,1.266,0,.642-.491,1.086-1.332,1.086a2.909,2.909,0,0,1-1.473-.416Z" transform="translate(-186.948 -1258.802)" fill="#fff"/>
      <path id="Path_583" data-name="Path 583" d="M324.915,1332.908c1.37,0,2.031,1.322,2.031,2.588,0,1.445-.737,2.644-2.04,2.644s-2.031-1.218-2.031-2.578c0-1.4.68-2.654,2.04-2.654m.038-.671c-1.7,0-2.956,1.322-2.956,3.343a2.918,2.918,0,0,0,2.862,3.23c1.624,0,2.956-1.161,2.956-3.353,0-1.889-1.124-3.221-2.862-3.221" transform="translate(-304.248 -1258.802)" fill="#fff"/>
      <path id="Path_584" data-name="Path 584" d="M487.6,1340.487h3.542v-.689h-2.72v-5.676H487.6Z" transform="translate(-460.727 -1260.582)" fill="#fff"/>
      <path id="Path_585" data-name="Path 585" d="M602.121,1337.843l.623-1.842c.123-.387.227-.774.321-1.152h.019c.094.368.189.746.331,1.162l.623,1.832Zm2.087.642.68,2h.878l-2.172-6.366H602.6l-2.163,6.366h.85l.661-2Z" transform="translate(-567.343 -1260.583)" fill="#fff"/>
      <path id="Path_586" data-name="Path 586" d="M755.561,1333.972a3.376,3.376,0,0,1,.812-.076c.869.01,1.464.369,1.464,1.19,0,.727-.557,1.209-1.436,1.209h-.841Zm-.822,5.7h.822v-2.758h.774c.746.028,1.086.359,1.275,1.238a8.26,8.26,0,0,0,.425,1.521h.85a10.125,10.125,0,0,1-.491-1.747,1.587,1.587,0,0,0-.935-1.285v-.028a1.671,1.671,0,0,0,1.2-1.624,1.586,1.586,0,0,0-.5-1.209,2.6,2.6,0,0,0-1.842-.519,8.561,8.561,0,0,0-1.577.132Z" transform="translate(-713.136 -1259.772)" fill="#fff"/>
      <path id="Path_587" data-name="Path 587" d="M967.965,1338.395a3.29,3.29,0,0,0,1.624.406c1.5,0,2.229-.85,2.229-1.832,0-.935-.548-1.455-1.625-1.87-.878-.34-1.266-.633-1.266-1.228,0-.435.331-.954,1.2-.954a2.534,2.534,0,0,1,1.209.3l.227-.671a2.893,2.893,0,0,0-1.407-.312,1.833,1.833,0,0,0-2.059,1.728c0,.9.642,1.436,1.681,1.8.859.33,1.2.671,1.2,1.266,0,.642-.491,1.086-1.332,1.086a2.909,2.909,0,0,1-1.473-.416Z" transform="translate(-914.609 -1258.802)" fill="#fff"/>
      <path id="Path_588" data-name="Path 588" d="M1091.01,1340.487v-2.71l2.134-3.655h-.935l-.916,1.757c-.245.482-.463.9-.642,1.313h-.019c-.2-.444-.387-.831-.633-1.313l-.9-1.757h-.935l2.012,3.665v2.7Z" transform="translate(-1028.185 -1260.582)" fill="#fff"/>
      <path id="Path_589" data-name="Path 589" d="M1224.3,1338.395a3.29,3.29,0,0,0,1.624.406c1.5,0,2.229-.85,2.229-1.832,0-.935-.548-1.455-1.625-1.87-.878-.34-1.266-.633-1.266-1.228,0-.435.33-.954,1.2-.954a2.534,2.534,0,0,1,1.209.3l.227-.671a2.9,2.9,0,0,0-1.407-.312,1.833,1.833,0,0,0-2.059,1.728c0,.9.642,1.436,1.681,1.8.859.33,1.2.671,1.2,1.266,0,.642-.491,1.086-1.332,1.086a2.909,2.909,0,0,1-1.474-.416Z" transform="translate(-1156.818 -1258.802)" fill="#fff"/>
      <path id="Path_590" data-name="Path 590" d="M1344.044,1340.487h.831v-5.667h1.946v-.7h-4.713v.7h1.936Z" transform="translate(-1268.128 -1260.582)" fill="#fff"/>
      <path id="Path_591" data-name="Path 591" d="M1484.455,1336.823h-2.474v-2.011h2.616v-.689h-3.438v6.366h3.58v-.69h-2.758V1337.5h2.474Z" transform="translate(-1399.514 -1260.583)" fill="#fff"/>
      <path id="Path_592" data-name="Path 592" d="M1608.769,1340.487h.8l-.4-6.366h-1.048l-1.133,3.079c-.283.8-.51,1.5-.67,2.144h-.028c-.161-.661-.378-1.36-.642-2.144l-1.086-3.079h-1.048l-.444,6.366h.784l.17-2.729c.057-.954.1-2.021.123-2.815h.019c.179.756.435,1.577.737,2.475l1.03,3.032h.623l1.124-3.088c.321-.879.585-1.672.8-2.418h.028c-.01.793.047,1.861.094,2.748Z" transform="translate(-1514.71 -1260.582)" fill="#fff"/>
      <path id="Path_593" data-name="Path 593" d="M1778.791,1338.395a3.292,3.292,0,0,0,1.625.406c1.5,0,2.229-.85,2.229-1.832,0-.935-.548-1.455-1.625-1.87-.878-.34-1.266-.633-1.266-1.228,0-.435.33-.954,1.2-.954a2.535,2.535,0,0,1,1.209.3l.227-.671a2.893,2.893,0,0,0-1.407-.312,1.833,1.833,0,0,0-2.059,1.728c0,.9.642,1.436,1.681,1.8.859.33,1.2.671,1.2,1.266,0,.642-.491,1.086-1.332,1.086a2.91,2.91,0,0,1-1.473-.416Z" transform="translate(-1680.741 -1258.802)" fill="#fff"/>
      <path id="Path_594" data-name="Path 594" d="M817.415,527.155,813.091,524l-8.966,6.534-3.317-2.416,12.282-8.95,7.641,5.567Z" transform="translate(-756.666 -490.554)" fill="#fff" fill-rule="evenodd"/>
      <path id="Path_595" data-name="Path 595" d="M1140.643,570.37l-5.4-3.937-5.756,4.194-3.317-2.416,9.073-6.611,7.469,5.441a25.063,25.063,0,0,1-2.065,3.328" transform="translate(-1064.09 -530.644)" fill="#fff" fill-rule="evenodd"/>
      <path id="Path_596" data-name="Path 596" d="M627.587,567.245l-1.115-.812-5.51,4.015a25.053,25.053,0,0,1-2.077-3.32l7.586-5.528,4.432,3.228Z" transform="translate(-584.772 -530.644)" fill="#fff" fill-rule="evenodd"/>
    </g>
  </g>
</svg>
