<svg xmlns="http://www.w3.org/2000/svg" xmlns:xlink="http://www.w3.org/1999/xlink" width="109.669" height="77.781" viewBox="0 0 109.669 77.781">
  <defs>
    <clipPath id="clip-path">
      <rect id="Rectangle_453" data-name="Rectangle 453" width="109.669" height="77.781" transform="translate(0 0)" fill="none"/>
    </clipPath>
  </defs>
  <g id="logo" transform="translate(0 -0.004)">
    <g id="Group_74" data-name="Group 74" transform="translate(0 0.004)" clip-path="url(#clip-path)">
      <path id="Path_571" data-name="Path 571" d="M574.989,26.239l-3.954,0a24.114,24.114,0,0,0,1.077,5.429L575.5,29.2a20.291,20.291,0,0,1-.513-2.962m0-3.944a20.263,20.263,0,0,1,.786-3.972l-3.658-1.511A24.159,24.159,0,0,0,571.03,22.3Zm2.3-7.615a20.472,20.472,0,0,1,2.248-3.364l-2.8-2.792a24.459,24.459,0,0,0-3.106,4.646Zm5.035-6.155a20.4,20.4,0,0,1,3.359-2.252l-1.518-3.656a24.432,24.432,0,0,0-4.64,3.114Zm7-3.771a20.364,20.364,0,0,1,3.97-.795l0-3.955A24.2,24.2,0,0,0,587.8,1.1Zm7.913-.8a20.393,20.393,0,0,1,3.973.785l1.509-3.654A24.2,24.2,0,0,0,597.225,0Zm7.615,2.3A20.508,20.508,0,0,1,608.208,8.5L611,5.7a24.552,24.552,0,0,0-4.646-3.1ZM611,11.285a20.406,20.406,0,0,1,2.254,3.359l3.652-1.517a24.347,24.347,0,0,0-3.116-4.638Zm7.427,5.482-3.654,1.518a20.189,20.189,0,0,1,.794,3.97l3.955,0a24.129,24.129,0,0,0-1.095-5.484m1.1,9.428-3.955,0a20.028,20.028,0,0,1-.513,2.986l3.4,2.463a24.189,24.189,0,0,0,1.072-5.453" transform="translate(-540.43 -0.003)" fill="#fff"/>
      <path id="Path_572" data-name="Path 572" d="M886.549,320.053a3.616,3.616,0,1,1,7.031-1.19,3.552,3.552,0,0,1-.2,1.184l3.26,2.365a7.562,7.562,0,1,0-13.344.013Z" transform="translate(-835.115 -294.622)" fill="#fff"/>
      <path id="Path_573" data-name="Path 573" d="M753.73,173.862l2.68-1.953,1.482,1.075a15.731,15.731,0,0,0-.433-6.259l-3.673,1.525a11.94,11.94,0,0,1-.055,5.612m-3.784-16.787-1.52,3.678a11.953,11.953,0,0,1,3.837,3.82l3.677-1.528a15.858,15.858,0,0,0-5.994-5.97m-10.58,2.172a11.943,11.943,0,0,1,5.415,0l1.518-3.677a15.881,15.881,0,0,0-8.46,0Zm-7.461,5.35a11.952,11.952,0,0,1,3.82-3.836l-1.529-3.679a15.867,15.867,0,0,0-5.972,5.994Zm-4.126,7.312,2.676,1.941a11.921,11.921,0,0,1-.052-5.606l-3.675-1.517a15.858,15.858,0,0,0-.569,4.224,16.092,16.092,0,0,0,.137,2.04Z" transform="translate(-687.247 -146.691)" fill="#fff"/>
      <path id="Path_574" data-name="Path 574" d="M574.989,26.239l-3.954,0a24.114,24.114,0,0,0,1.077,5.429L575.5,29.2a20.291,20.291,0,0,1-.513-2.962m0-3.944a20.263,20.263,0,0,1,.786-3.972l-3.658-1.511A24.159,24.159,0,0,0,571.03,22.3Zm2.3-7.615a20.472,20.472,0,0,1,2.248-3.364l-2.8-2.792a24.459,24.459,0,0,0-3.106,4.646Zm5.035-6.155a20.4,20.4,0,0,1,3.359-2.252l-1.518-3.656a24.432,24.432,0,0,0-4.64,3.114Zm7-3.771a20.364,20.364,0,0,1,3.97-.795l0-3.955A24.2,24.2,0,0,0,587.8,1.1Zm7.913-.8a20.393,20.393,0,0,1,3.973.785l1.509-3.654A24.2,24.2,0,0,0,597.225,0Zm7.615,2.3A20.508,20.508,0,0,1,608.208,8.5L611,5.7a24.552,24.552,0,0,0-4.646-3.1ZM611,11.285a20.406,20.406,0,0,1,2.254,3.359l3.652-1.517a24.347,24.347,0,0,0-3.116-4.638Zm7.427,5.482-3.654,1.518a20.189,20.189,0,0,1,.794,3.97l3.955,0a24.129,24.129,0,0,0-1.095-5.484m1.1,9.428-3.955,0a20.028,20.028,0,0,1-.513,2.986l3.4,2.463a24.189,24.189,0,0,0,1.072-5.453" transform="translate(-540.43 -0.003)" fill="#fff"/>
      <path id="Path_575" data-name="Path 575" d="M886.549,320.053a3.616,3.616,0,1,1,7.031-1.19,3.552,3.552,0,0,1-.2,1.184l3.26,2.365a7.562,7.562,0,1,0-13.344.013Z" transform="translate(-835.115 -294.622)" fill="#fff"/>
      <path id="Path_576" data-name="Path 576" d="M753.73,173.862l2.68-1.953,1.482,1.075a15.731,15.731,0,0,0-.433-6.259l-3.673,1.525a11.94,11.94,0,0,1-.055,5.612m-3.784-16.787-1.52,3.678a11.953,11.953,0,0,1,3.837,3.82l3.677-1.528a15.858,15.858,0,0,0-5.994-5.97m-10.58,2.172a11.943,11.943,0,0,1,5.415,0l1.518-3.677a15.881,15.881,0,0,0-8.46,0Zm-7.461,5.35a11.952,11.952,0,0,1,3.82-3.836l-1.529-3.679a15.867,15.867,0,0,0-5.972,5.994Zm-4.126,7.312,2.676,1.941a11.921,11.921,0,0,1-.052-5.606l-3.675-1.517a15.858,15.858,0,0,0-.569,4.224,16.092,16.092,0,0,0,.137,2.04Z" transform="translate(-687.247 -146.691)" fill="#fff"/>
      <path id="Path_577" data-name="Path 577" d="M13.338,844.521H5.089v-4.657h8.748v-4.158H0v22.42H14.3v-4.158H5.089v-5.322h8.249Z" transform="translate(0 -790.923)" fill="#fff"/>
      <rect id="Rectangle_451" data-name="Rectangle 451" width="5.089" height="22.42" transform="translate(17.763 44.783)" fill="#fff"/>
      <path id="Path_578" data-name="Path 578" d="M473.409,849.81c0,3.493-1.331,4.457-3.459,4.457a8.336,8.336,0,0,1-2.594-.4l-.565,4.091a13.2,13.2,0,0,0,3.692.532c4.923,0,7.983-2.229,7.983-8.615v-14.17h-5.056Z" transform="translate(-441.776 -790.923)" fill="#fff"/>
      <path id="Path_579" data-name="Path 579" d="M747.362,850.632A14.671,14.671,0,0,0,753.715,852c6.154,0,9.047-3.193,9.047-6.952,0-3.16-1.863-5.222-5.821-6.686-2.894-1.1-4.158-1.73-4.158-3.16,0-1.164,1.065-2.162,3.26-2.162a10.657,10.657,0,0,1,4.69,1.064l1.131-4.091a13.736,13.736,0,0,0-5.721-1.131c-5.289,0-8.482,2.927-8.482,6.752,0,3.26,2.428,5.322,6.154,6.619,2.694.965,3.759,1.763,3.759,3.16,0,1.464-1.231,2.428-3.559,2.428a12.934,12.934,0,0,1-5.621-1.4Z" transform="translate(-707.313 -784.461)" fill="#fff"/>
      <rect id="Rectangle_452" data-name="Rectangle 452" width="5.089" height="22.42" transform="translate(58.876 44.783)" fill="#fff"/>
      <path id="Path_580" data-name="Path 580" d="M1280.262,858.125v-6.752c0-3.659-.066-6.819-.2-9.779l.1-.033a83.254,83.254,0,0,0,3.892,7.917l4.79,8.648h5.322V835.706h-4.657v6.553a83.23,83.23,0,0,0,.432,9.347h-.1a65.017,65.017,0,0,0-3.659-7.684l-4.657-8.216H1275.6v22.419Z" transform="translate(-1207.249 -790.923)" fill="#fff"/>
      <path id="Path_581" data-name="Path 581" d="M1703.909,858.125h5.023v-7.318l1.929-2.362,5.489,9.68h5.921l-7.817-12.873,7.418-9.547h-6.22l-5.089,7.451c-.5.8-1.031,1.6-1.53,2.461h-.1v-9.912h-5.023Z" transform="translate(-1612.601 -790.923)" fill="#fff"/>
      <path id="Path_582" data-name="Path 582" d="M197.854,1338.224a3.2,3.2,0,0,0,1.579.395c1.46,0,2.167-.826,2.167-1.781,0-.909-.533-1.414-1.579-1.818-.854-.331-1.23-.615-1.23-1.194,0-.422.321-.927,1.166-.927a2.464,2.464,0,0,1,1.175.294l.22-.652a2.812,2.812,0,0,0-1.368-.3,1.782,1.782,0,0,0-2,1.68c0,.873.624,1.4,1.634,1.754.836.321,1.166.652,1.166,1.23,0,.625-.477,1.056-1.295,1.056a2.828,2.828,0,0,1-1.432-.4Z" transform="translate(-187.252 -1260.846)" fill="#fff"/>
      <path id="Path_583" data-name="Path 583" d="M324.834,1332.889c1.331,0,1.974,1.285,1.974,2.516,0,1.4-.716,2.571-1.983,2.571s-1.974-1.184-1.974-2.507c0-1.359.661-2.58,1.983-2.58m.037-.652a2.94,2.94,0,0,0-2.874,3.25,2.837,2.837,0,0,0,2.782,3.14c1.579,0,2.874-1.129,2.874-3.259,0-1.837-1.093-3.131-2.782-3.131" transform="translate(-304.742 -1260.846)" fill="#fff"/>
      <path id="Path_584" data-name="Path 584" d="M487.6,1340.31h3.443v-.67H488.4v-5.518h-.8Z" transform="translate(-461.475 -1262.629)" fill="#fff"/>
      <path id="Path_585" data-name="Path 585" d="M602.074,1337.74l.606-1.79c.119-.377.22-.753.312-1.12h.018c.092.358.184.725.321,1.129l.606,1.781Zm2.029.624.661,1.947h.854l-2.112-6.188h-.964l-2.1,6.188h.826l.643-1.947Z" transform="translate(-568.264 -1262.63)" fill="#fff"/>
      <path id="Path_586" data-name="Path 586" d="M755.538,1333.953a3.292,3.292,0,0,1,.79-.073c.845.009,1.423.358,1.423,1.157,0,.707-.542,1.175-1.4,1.175h-.817Zm-.8,5.546h.8v-2.681h.753c.725.027,1.056.349,1.24,1.2a8.03,8.03,0,0,0,.413,1.478h.826a9.851,9.851,0,0,1-.477-1.7,1.543,1.543,0,0,0-.909-1.249v-.028a1.624,1.624,0,0,0,1.166-1.579,1.542,1.542,0,0,0-.487-1.176,2.532,2.532,0,0,0-1.79-.5,8.307,8.307,0,0,0-1.533.129Z" transform="translate(-714.295 -1261.818)" fill="#fff"/>
      <path id="Path_587" data-name="Path 587" d="M967.965,1338.224a3.2,3.2,0,0,0,1.579.395c1.46,0,2.167-.826,2.167-1.781,0-.909-.533-1.414-1.579-1.818-.854-.331-1.23-.615-1.23-1.194,0-.422.321-.927,1.166-.927a2.464,2.464,0,0,1,1.175.294l.22-.652a2.812,2.812,0,0,0-1.368-.3,1.782,1.782,0,0,0-2,1.68c0,.873.624,1.4,1.634,1.754.836.321,1.166.652,1.166,1.23,0,.625-.478,1.056-1.295,1.056a2.828,2.828,0,0,1-1.432-.4Z" transform="translate(-916.094 -1260.846)" fill="#fff"/>
      <path id="Path_588" data-name="Path 588" d="M1090.931,1340.309v-2.635l2.075-3.553h-.909l-.891,1.708c-.239.468-.45.872-.624,1.276h-.018c-.193-.432-.377-.808-.615-1.276l-.872-1.708h-.909l1.956,3.563v2.626Z" transform="translate(-1029.855 -1262.629)" fill="#fff"/>
      <path id="Path_589" data-name="Path 589" d="M1224.3,1338.224a3.2,3.2,0,0,0,1.579.395c1.46,0,2.167-.826,2.167-1.781,0-.909-.532-1.414-1.579-1.818-.854-.331-1.23-.615-1.23-1.194,0-.422.321-.927,1.166-.927a2.464,2.464,0,0,1,1.175.294l.221-.652a2.814,2.814,0,0,0-1.368-.3,1.782,1.782,0,0,0-2,1.68c0,.873.624,1.4,1.634,1.754.835.321,1.166.652,1.166,1.23,0,.625-.478,1.056-1.295,1.056a2.828,2.828,0,0,1-1.432-.4Z" transform="translate(-1158.697 -1260.846)" fill="#fff"/>
      <path id="Path_590" data-name="Path 590" d="M1343.99,1340.31h.808V1334.8h1.892v-.68h-4.582v.68h1.882Z" transform="translate(-1270.188 -1262.629)" fill="#fff"/>
      <path id="Path_591" data-name="Path 591" d="M1484.363,1336.748h-2.406v-1.956h2.543v-.67h-3.342v6.188h3.48v-.67h-2.681v-2.231h2.406Z" transform="translate(-1401.787 -1262.63)" fill="#fff"/>
      <path id="Path_592" data-name="Path 592" d="M1608.611,1340.309h.78l-.386-6.189h-1.019l-1.1,2.993c-.275.781-.5,1.46-.652,2.084h-.028c-.156-.643-.368-1.322-.625-2.084l-1.056-2.993h-1.019l-.431,6.189h.762l.165-2.654c.055-.927.1-1.965.119-2.736h.018c.174.735.422,1.533.716,2.406l1,2.947h.606l1.093-3c.312-.854.569-1.625.78-2.351h.028c-.009.771.046,1.809.092,2.672Z" transform="translate(-1517.17 -1262.629)" fill="#fff"/>
      <path id="Path_593" data-name="Path 593" d="M1778.791,1338.224a3.2,3.2,0,0,0,1.579.395c1.46,0,2.167-.826,2.167-1.781,0-.909-.533-1.414-1.579-1.818-.854-.331-1.23-.615-1.23-1.194,0-.422.321-.927,1.166-.927a2.465,2.465,0,0,1,1.175.294l.22-.652a2.813,2.813,0,0,0-1.368-.3,1.782,1.782,0,0,0-2,1.68c0,.873.625,1.4,1.635,1.754.835.321,1.166.652,1.166,1.23,0,.625-.478,1.056-1.294,1.056a2.829,2.829,0,0,1-1.433-.4Z" transform="translate(-1683.47 -1260.846)" fill="#fff"/>
      <path id="Path_594" data-name="Path 594" d="M816.953,526.932l-4.2-3.063-8.717,6.352-3.224-2.349,11.941-8.7,7.429,5.412Z" transform="translate(-757.895 -491.35)" fill="#fff" fill-rule="evenodd"/>
      <path id="Path_595" data-name="Path 595" d="M1140.24,570.126l-5.253-3.827-5.6,4.078-3.224-2.349,8.82-6.427,7.262,5.29a24.361,24.361,0,0,1-2.008,3.236" transform="translate(-1065.818 -531.505)" fill="#fff" fill-rule="evenodd"/>
      <path id="Path_596" data-name="Path 596" d="M627.345,567.088l-1.084-.789-5.356,3.9a24.35,24.35,0,0,1-2.019-3.228l7.375-5.374,4.308,3.139Z" transform="translate(-585.722 -531.505)" fill="#fff" fill-rule="evenodd"/>
    </g>
  </g>
</svg>
