<svg xmlns="http://www.w3.org/2000/svg" width="134" height="134" viewBox="0 0 134 134">
  <g id="round-2" transform="translate(-633 -1938)">
    <circle id="round-2-2" data-name="round-2" cx="67" cy="67" r="67" transform="translate(633 1938)" fill="#eb8903"/>
    <g id="Group_102" data-name="Group 102" transform="translate(660.256 1978.909)">
      <path id="Path_674" data-name="Path 674" d="M36.7,43.746a1.722,1.722,0,0,1-.773-.176l-9.792-4.634L16.345,43.57A1.788,1.788,0,0,1,13.8,41.719L15.2,30.967,7.735,23.091a1.8,1.8,0,0,1,.978-3L19.375,18.1l5.184-9.526a1.876,1.876,0,0,1,3.156,0L32.9,18.1,43.56,20.089a1.8,1.8,0,0,1,.978,3l-7.459,7.876,1.406,10.752a1.8,1.8,0,0,1-1.8,2.027ZM26.137,35.119a1.772,1.772,0,0,1,.773.176l7.581,3.595-1.078-8.329a1.8,1.8,0,0,1,.474-1.467l5.777-6.111L31.4,21.441a1.8,1.8,0,0,1-1.247-.906l-4.012-7.34-4.015,7.376a1.8,1.8,0,0,1-1.247.906l-8.268,1.542,5.777,6.111a1.8,1.8,0,0,1,.475,1.467l-1.078,8.329,7.581-3.595a1.772,1.772,0,0,1,.776-.2Z" transform="translate(13.607 1.174)" fill="#fff"/>
      <path id="Path_675" data-name="Path 675" d="M9.009,36.875a1.8,1.8,0,0,1-1.8-2.031l1.107-8.426L2.492,20.25a1.8,1.8,0,0,1,.974-3l8.361-1.582L15.875,8.2a1.8,1.8,0,0,1,1.582-.938h0a1.8,1.8,0,0,1,1.578.935l3.774,6.938a1.8,1.8,0,1,1-3.156,1.722l-2.2-4.03-2.876,5.32a1.8,1.8,0,0,1-1.251.909L7.37,20.174l4.166,4.4a1.8,1.8,0,0,1,.478,1.47l-.791,5.992,5.457-2.6a1.8,1.8,0,0,1,1.546,0l5.32,2.516a1.8,1.8,0,0,1-1.539,3.235L17.46,33.032,9.785,36.706a1.8,1.8,0,0,1-.776.169Zm61.469,0A1.8,1.8,0,0,1,69.7,36.7L62.031,33.05l-4.547,2.157a1.8,1.8,0,1,1-1.539-3.235l5.32-2.516a1.8,1.8,0,0,1,1.546,0l5.457,2.6-.791-5.992a1.8,1.8,0,0,1,.478-1.47l4.166-4.4-5.96-1.118a1.8,1.8,0,0,1-1.251-.909l-2.876-5.32-2.193,4.03a1.8,1.8,0,1,1-3.156-1.722L60.46,8.215a1.8,1.8,0,0,1,1.578-.935h0a1.8,1.8,0,0,1,1.578.938l4.044,7.448,8.361,1.567a1.8,1.8,0,0,1,.974,3L71.15,26.411l1.107,8.426a1.8,1.8,0,0,1-1.8,2.031Z" transform="translate(0 0)" fill="#fff"/>
    </g>
  </g>
</svg>
