<svg xmlns="http://www.w3.org/2000/svg" xmlns:xlink="http://www.w3.org/1999/xlink" width="134" height="134" viewBox="0 0 134 134">
  <defs>
    <clipPath id="clip-path">
      <rect id="Rectangle_458" data-name="Rectangle 458" width="77.406" height="62.046" fill="none"/>
    </clipPath>
  </defs>
  <g id="round" transform="translate(-633 -587)">
    <circle id="round-2" data-name="round" cx="67" cy="67" r="67" transform="translate(633 587)" fill="#eb8903"/>
    <g id="Group_86" data-name="Group 86" transform="translate(661.297 615.977)">
      <g id="Group_85" data-name="Group 85" clip-path="url(#clip-path)">
        <path id="Path_615" data-name="Path 615" d="M6.319,41.878l-6.312.007a38.492,38.492,0,0,0,1.72,8.666l5.411-3.945a32.417,32.417,0,0,1-.819-4.728m-.008-6.295a32.352,32.352,0,0,1,1.255-6.341L1.728,26.831A38.567,38.567,0,0,0,0,35.589ZM9.977,23.428a32.684,32.684,0,0,1,3.588-5.37L9.1,13.6a39.034,39.034,0,0,0-4.957,7.417ZM18.014,13.6a32.563,32.563,0,0,1,5.362-3.595L20.953,4.172a39.008,39.008,0,0,0-7.407,4.971ZM29.187,7.584a32.506,32.506,0,0,1,6.336-1.269L35.517,0a38.621,38.621,0,0,0-8.755,1.744ZM41.818,6.307a32.554,32.554,0,0,1,6.341,1.253l2.409-5.832A38.625,38.625,0,0,0,41.812,0ZM53.973,9.973a32.742,32.742,0,0,1,5.371,3.588L63.8,9.1a39.2,39.2,0,0,0-7.415-4.956ZM63.8,18.008a32.555,32.555,0,0,1,3.6,5.362l5.83-2.421a38.866,38.866,0,0,0-4.974-7.4Zm11.855,8.751-5.833,2.423a32.227,32.227,0,0,1,1.267,6.337l6.313-.006a38.52,38.52,0,0,0-1.747-8.754m1.752,15.05-6.313.006a31.951,31.951,0,0,1-.819,4.767L75.7,50.513a38.613,38.613,0,0,0,1.71-8.7" fill="#fff"/>
        <path id="Path_616" data-name="Path 616" d="M317.992,325.267a5.772,5.772,0,1,1,11.223-1.9,5.668,5.668,0,0,1-.322,1.889l5.2,3.775a12.071,12.071,0,1,0-21.3.02Z" transform="translate(-284.737 -284.673)" fill="#fff"/>
        <path id="Path_617" data-name="Path 617" d="M199.138,185.107l4.278-3.118,2.365,1.716a25.113,25.113,0,0,0-.691-9.99l-5.864,2.434a19.056,19.056,0,0,1-.088,8.958m-6.04-26.8-2.426,5.871a19.079,19.079,0,0,1,6.124,6.1l5.87-2.439a25.313,25.313,0,0,0-9.568-9.53m-16.887,3.467a19.064,19.064,0,0,1,8.644,0l2.423-5.87a25.349,25.349,0,0,0-13.5,0ZM164.3,170.317a19.077,19.077,0,0,1,6.1-6.122l-2.441-5.872a25.326,25.326,0,0,0-9.533,9.567Zm-6.586,11.672,4.271,3.1a19.03,19.03,0,0,1-.083-8.948l-5.866-2.422a25.3,25.3,0,0,0-.908,6.743,25.674,25.674,0,0,0,.218,3.256Z" transform="translate(-141.862 -141.736)" fill="#fff"/>
        <path id="Path_618" data-name="Path 618" d="M6.319,41.878l-6.312.007a38.492,38.492,0,0,0,1.72,8.666l5.411-3.945a32.417,32.417,0,0,1-.819-4.728m-.008-6.295a32.352,32.352,0,0,1,1.255-6.341L1.728,26.831A38.567,38.567,0,0,0,0,35.589ZM9.977,23.428a32.684,32.684,0,0,1,3.588-5.37L9.1,13.6a39.034,39.034,0,0,0-4.957,7.417ZM18.014,13.6a32.563,32.563,0,0,1,5.362-3.595L20.953,4.172a39.008,39.008,0,0,0-7.407,4.971ZM29.187,7.584a32.506,32.506,0,0,1,6.336-1.269L35.517,0a38.621,38.621,0,0,0-8.755,1.744ZM41.818,6.307a32.554,32.554,0,0,1,6.341,1.253l2.409-5.832A38.625,38.625,0,0,0,41.812,0ZM53.973,9.973a32.742,32.742,0,0,1,5.371,3.588L63.8,9.1a39.2,39.2,0,0,0-7.415-4.956ZM63.8,18.008a32.555,32.555,0,0,1,3.6,5.362l5.83-2.421a38.866,38.866,0,0,0-4.974-7.4Zm11.855,8.751-5.833,2.423a32.227,32.227,0,0,1,1.267,6.337l6.313-.006a38.52,38.52,0,0,0-1.747-8.754m1.752,15.05-6.313.006a31.951,31.951,0,0,1-.819,4.767L75.7,50.513a38.613,38.613,0,0,0,1.71-8.7" fill="#fff"/>
        <path id="Path_619" data-name="Path 619" d="M317.992,325.267a5.772,5.772,0,1,1,11.223-1.9,5.668,5.668,0,0,1-.322,1.889l5.2,3.775a12.071,12.071,0,1,0-21.3.02Z" transform="translate(-284.737 -284.673)" fill="#fff"/>
        <path id="Path_620" data-name="Path 620" d="M199.138,185.107l4.278-3.118,2.365,1.716a25.113,25.113,0,0,0-.691-9.99l-5.864,2.434a19.056,19.056,0,0,1-.088,8.958m-6.04-26.8-2.426,5.871a19.079,19.079,0,0,1,6.124,6.1l5.87-2.439a25.313,25.313,0,0,0-9.568-9.53m-16.887,3.467a19.064,19.064,0,0,1,8.644,0l2.423-5.87a25.349,25.349,0,0,0-13.5,0ZM164.3,170.317a19.077,19.077,0,0,1,6.1-6.122l-2.441-5.872a25.326,25.326,0,0,0-9.533,9.567Zm-6.586,11.672,4.271,3.1a19.03,19.03,0,0,1-.083-8.948l-5.866-2.422a25.3,25.3,0,0,0-.908,6.743,25.674,25.674,0,0,0,.218,3.256Z" transform="translate(-141.862 -141.736)" fill="#fff"/>
        <path id="Path_621" data-name="Path 621" d="M255.549,531.556l-6.711-4.889-13.913,10.139-5.147-3.75,19.06-13.889,11.858,8.638Z" transform="translate(-210.124 -474.76)" fill="#fff" fill-rule="evenodd"/>
        <path id="Path_622" data-name="Path 622" d="M577.6,575.2l-8.385-6.109-8.932,6.509-5.147-3.75L569.215,561.6l11.591,8.444a38.9,38.9,0,0,1-3.2,5.165" transform="translate(-507.652 -513.559)" fill="#fff" fill-rule="evenodd"/>
        <path id="Path_623" data-name="Path 623" d="M61.359,570.356l-1.73-1.26-8.55,6.23a38.886,38.886,0,0,1-3.223-5.152L59.629,561.6l6.877,5.01Z" transform="translate(-43.763 -513.559)" fill="#fff" fill-rule="evenodd"/>
      </g>
    </g>
  </g>
</svg>
