<svg xmlns="http://www.w3.org/2000/svg" xmlns:xlink="http://www.w3.org/1999/xlink" width="65" height="92" viewBox="0 0 65 92">
  <defs>
    <clipPath id="clip-path">
      <rect id="Rectangle_461" data-name="Rectangle 461" width="65" height="92" transform="translate(0 -0.411)" fill="none"/>
    </clipPath>
  </defs>
  <g id="service-3" transform="translate(0 0.411)">
    <g id="Group_87" data-name="Group 87" clip-path="url(#clip-path)">
      <path id="Path_624" data-name="Path 624" d="M50,411.9a4.9,4.9,0,0,0,4.9,4.9H72.705a4.9,4.9,0,0,0,0-9.795H54.9a4.9,4.9,0,0,0-4.9,4.9m24.932,0a2.228,2.228,0,0,1-2.226,2.226H54.9a2.226,2.226,0,1,1,0-4.452H72.705a2.228,2.228,0,0,1,2.226,2.226" transform="translate(-41.096 -334.521)" fill="#011839"/>
      <path id="Path_625" data-name="Path 625" d="M60.1,17.837H45.411V4.9a4.9,4.9,0,0,0-4.9-4.9H4.9A4.9,4.9,0,0,0,0,4.9V86.281a4.9,4.9,0,0,0,4.9,4.9H40.514a4.9,4.9,0,0,0,4.9-4.9V66.809H60.1a4.9,4.9,0,0,0,4.9-4.9V22.734a4.9,4.9,0,0,0-4.9-4.9M15.137,2.671H30.274V4.9a2.229,2.229,0,0,1-2.226,2.226H17.363A2.229,2.229,0,0,1,15.137,4.9Zm27.6,83.61a2.229,2.229,0,0,1-2.226,2.226H4.9a2.229,2.229,0,0,1-2.226-2.226V4.9A2.228,2.228,0,0,1,4.9,2.671h7.568V4.9a4.9,4.9,0,0,0,4.9,4.9H28.048a4.9,4.9,0,0,0,4.9-4.9V2.671h7.568A2.228,2.228,0,0,1,42.74,4.9V17.837H20.925a4.9,4.9,0,0,0-4.9,4.9V61.912a4.9,4.9,0,0,0,4.9,4.9H42.74ZM62.329,61.912A2.228,2.228,0,0,1,60.1,64.138H20.925A2.228,2.228,0,0,1,18.7,61.912V22.734a2.228,2.228,0,0,1,2.226-2.226H60.1a2.228,2.228,0,0,1,2.226,2.226Z" fill="#191919"/>
      <path id="Path_626" data-name="Path 626" d="M176.267,285.577h-8.459v-3.918h-2.671v3.918h-2.671v-3.918h-2.671v3.918h-8.459a1.336,1.336,0,1,0,0,2.671h24.932a1.336,1.336,0,1,0,0-2.671" transform="translate(-123.288 -231.501)" fill="#eb8903"/>
      <path id="Path_627" data-name="Path 627" d="M205.265,211.659h-10.7l-.625,4.452H205.89Z" transform="translate(-159.399 -173.966)" fill="#eb8903"/>
      <path id="Path_628" data-name="Path 628" d="M273.325,216.111h8.369l-1.232-4.452H272.7Z" transform="translate(-224.137 -173.966)" fill="#eb8903"/>
      <path id="Path_629" data-name="Path 629" d="M140.788,211.659h-7.763l-1.232,4.452h8.369Z" transform="translate(-108.323 -173.966)" fill="#eb8903"/>
      <path id="Path_630" data-name="Path 630" d="M151.258,156.659h-5.412a1.335,1.335,0,0,0-1.287.979l-1.7,6.144h7.4Z" transform="translate(-117.418 -128.761)" fill="#eb8903"/>
      <path id="Path_631" data-name="Path 631" d="M208.507,156.659h-7.952l-1,7.123h9.953Z" transform="translate(-164.017 -128.761)" fill="#eb8903"/>
      <path id="Path_632" data-name="Path 632" d="M273.373,163.782l-1.7-6.144a1.335,1.335,0,0,0-1.287-.979h-5.412l1,7.123Z" transform="translate(-217.787 -128.761)" fill="#eb8903"/>
      <rect id="Rectangle_460" data-name="Rectangle 460" width="34.726" height="2.671" transform="translate(23.151 44.816)" fill="#eb8903"/>
    </g>
  </g>
</svg>
