<svg xmlns="http://www.w3.org/2000/svg" xmlns:xlink="http://www.w3.org/1999/xlink" width="80.086" height="73.354" viewBox="0 0 80.086 73.354">
  <defs>
    <clipPath id="clip-path">
      <rect id="Rectangle_467" data-name="Rectangle 467" width="80.086" height="73.355" transform="translate(0 0)" fill="none"/>
    </clipPath>
  </defs>
  <g id="service-1" transform="translate(0 0.002)">
    <g id="Group_99" data-name="Group 99" transform="translate(0 -0.002)" clip-path="url(#clip-path)">
      <path id="Path_661" data-name="Path 661" d="M230.847,741.805h-.006l-22.277,0a1.251,1.251,0,0,1,0-2.5h0l22.277,0h.005a26.378,26.378,0,0,0,13.929-3.973l27.792-17.272a3.212,3.212,0,0,0,.113-5.386,3.214,3.214,0,0,0-3.5-.071q-5.03,3.133-13.731,8.62-4.169,2.623-9.107,5.729a1.251,1.251,0,0,1-1.332-2.119q4.93-3.1,9.106-5.729,8.7-5.476,13.741-8.626a5.715,5.715,0,1,1,6.034,9.708L246.1,737.455a28.883,28.883,0,0,1-15.249,4.35" transform="translate(-196.504 -672.615)"/>
      <path id="Path_662" data-name="Path 662" d="M241.079,902.757H227.793a1.251,1.251,0,0,1,0-2.5h13.286a3.42,3.42,0,0,0,3.423-3.263,3.366,3.366,0,0,0-.942-2.5,3.537,3.537,0,0,0-2.547-1.09H224.573c-2.357-.021-9.53-.086-13.866,4.364a12.38,12.38,0,0,0-1.133,1.342,1.251,1.251,0,0,1-2.022-1.474,14.894,14.894,0,0,1,1.362-1.615,16.691,16.691,0,0,1,8.562-4.485,31.426,31.426,0,0,1,7.114-.635h16.422a6.051,6.051,0,0,1,4.358,1.865A5.847,5.847,0,0,1,247,897.108a5.919,5.919,0,0,1-5.923,5.649" transform="translate(-196.503 -844.444)" fill="#212121"/>
      <path id="Path_663" data-name="Path 663" d="M12.061,917.793H1.251A1.251,1.251,0,0,1,0,916.542v-24.4a1.251,1.251,0,0,1,1.251-1.251H12.061a1.251,1.251,0,0,1,1.251,1.251v24.4a1.251,1.251,0,0,1-1.251,1.251M2.5,915.29h8.306v-21.9H2.5Z" transform="translate(0 -844.438)"/>
      <path id="Path_664" data-name="Path 664" d="M343.545,41.9a1.251,1.251,0,0,1-1.251-1.251V30.84h-5.876a4.134,4.134,0,0,1-4.129-4.129V4.127A4.134,4.134,0,0,1,336.418,0H373.6a4.134,4.134,0,0,1,4.129,4.129V26.711A4.134,4.134,0,0,1,373.6,30.84H354.107l-9.634,10.648a1.251,1.251,0,0,1-.928.412M336.418,2.5a1.628,1.628,0,0,0-1.626,1.626V26.711a1.628,1.628,0,0,0,1.626,1.626h7.128a1.251,1.251,0,0,1,1.251,1.251V37.4l7.827-8.651a1.251,1.251,0,0,1,.928-.412H373.6a1.628,1.628,0,0,0,1.626-1.626V4.127A1.628,1.628,0,0,0,373.6,2.5Z" transform="translate(-314.964 0.002)"/>
      <path id="Path_665" data-name="Path 665" d="M600.141,137.14a9.233,9.233,0,1,1,9.233-9.233,9.244,9.244,0,0,1-9.233,9.233m0-15.964a6.731,6.731,0,1,0,6.731,6.731,6.738,6.738,0,0,0-6.731-6.731" transform="translate(-560.098 -112.485)" fill="#eb8903"/>
      <path id="Path_666" data-name="Path 666" d="M691.816,239.682a1.248,1.248,0,0,1-.885-.366l-1.726-1.726a1.251,1.251,0,0,1,1.77-1.77l.841.841,3.141-3.142a1.251,1.251,0,1,1,1.77,1.77l-4.026,4.026a1.248,1.248,0,0,1-.885.366" transform="translate(-652.923 -220.997)" fill="#eb8903"/>
    </g>
  </g>
</svg>
