<svg xmlns="http://www.w3.org/2000/svg" xmlns:xlink="http://www.w3.org/1999/xlink" width="1400" height="654.001" viewBox="0 0 1400 654.001">
  <defs>
    <linearGradient id="linear-gradient" x1="0.5" y1="0.1" x2="0.5" y2="1" gradientUnits="objectBoundingBox">
      <stop offset="0" stop-color="#fff" stop-opacity="0"/>
      <stop offset="1" stop-color="#fff"/>
    </linearGradient>
    <clipPath id="clip-path">
      <rect y="-75" width="1400" height="654.001" fill="none"/>
    </clipPath>
  </defs>
  <g id="sunrise-shade" transform="translate(0 75)" clip-path="url(#clip-path)" style="isolation: isolate">
    <path id="Subtraction_3" data-name="Subtraction 3" d="M-146,598H-528.969l-49.779-36.264L-628.513,598H-737.851l-108.022-78.693L-953.861,598h-109.357L-1113,561.736-1162.76,598H-1546V-127H-146V598ZM-1224.605,489.729l-73.79.081a454.043,454.043,0,0,0,7.221,51.664,450.408,450.408,0,0,0,12.884,49.65l63.257-46.116a380.45,380.45,0,0,1-9.571-55.279Zm831.082-.81-73.808.067a374.971,374.971,0,0,1-9.572,55.732l63.383,45.968a449.8,449.8,0,0,0,12.846-49.874,457.156,457.156,0,0,0,7.151-51.893Zm-452.6-177.479a141.788,141.788,0,0,0-28.38,2.9,140.342,140.342,0,0,0-26.446,8.248,141.357,141.357,0,0,0-23.943,13.027,142.5,142.5,0,0,0-20.869,17.235,142.468,142.468,0,0,0-17.226,20.874A141.279,141.279,0,0,0-976,397.665a140.23,140.23,0,0,0-8.231,26.439,141.543,141.543,0,0,0-2.879,28.366v.228a140.685,140.685,0,0,0,4.372,34.693,140.664,140.664,0,0,0,12.3,31.562l60.733-44.236a67.07,67.07,0,0,1-3.8-22.092,66.908,66.908,0,0,1,5.291-26.26,67.572,67.572,0,0,1,6.223-11.472,68.173,68.173,0,0,1,8.246-10,68.2,68.2,0,0,1,10-8.26,67.693,67.693,0,0,1,11.473-6.244,67.144,67.144,0,0,1,26.288-5.345,66.866,66.866,0,0,1,26.226,5.31,67.631,67.631,0,0,1,11.461,6.227,68.221,68.221,0,0,1,9.994,8.244,68.22,68.22,0,0,1,8.253,9.988,67.621,67.621,0,0,1,6.237,11.458,66.876,66.876,0,0,1,5.33,26.233v.181a66.346,66.346,0,0,1-3.77,21.9l60.841,44.129a140.866,140.866,0,0,0,12.2-31.454,140.473,140.473,0,0,0,4.327-34.552v-.281a141.594,141.594,0,0,0-2.9-28.379,140.239,140.239,0,0,0-8.253-26.448,141.29,141.29,0,0,0-13.039-23.946,142.5,142.5,0,0,0-17.255-20.873,142.521,142.521,0,0,0-20.9-17.229,141.425,141.425,0,0,0-23.977-13.014A140.452,140.452,0,0,0-817.7,314.31a141.888,141.888,0,0,0-28.419-2.869ZM-559.274,374l-68.55,28.454a224.656,224.656,0,0,1,5.737,49.892,225.057,225.057,0,0,1-6.768,54.84l50.012-36.453,27.649,20.064a298.627,298.627,0,0,0,2.542-38.211v-.306a295.028,295.028,0,0,0-2.754-39.943A301.551,301.551,0,0,0-559.274,374Zm-553.831,96.733h0l49.928,36.214a224.258,224.258,0,0,1-6.732-54.165,224.028,224.028,0,0,1,5.76-50.448l-68.581-28.316a296.24,296.24,0,0,0-10.614,78.513v.319a301.891,301.891,0,0,0,2.55,38.062l27.69-20.179Zm-165.17-156.912a448.123,448.123,0,0,0-12.986,50.169,457.756,457.756,0,0,0-7.215,52.225l73.781-.074c1.213-12.632,3.075-25.318,5.535-37.705,2.431-12.243,5.505-24.5,9.138-36.422Zm864.267-.842L-482.2,341.3c3.661,11.914,6.761,24.161,9.215,36.4a380.48,380.48,0,0,1,5.6,37.687l73.805-.066a457.8,457.8,0,0,0-7.325-52.2A446.993,446.993,0,0,0-414.009,312.976ZM-993.371,194.05h0a295.479,295.479,0,0,0-63.964,49.009,297.783,297.783,0,0,0-47.486,62.843l68.706,28.373a224,224,0,0,1,31.175-39.515A223.241,223.241,0,0,1-964.835,262.7l-28.536-68.648Zm293.9-.131-28.358,68.64a224.484,224.484,0,0,1,39.539,31.191,222.861,222.861,0,0,1,32.056,40.1l68.624-28.514a295.127,295.127,0,0,0-49-63.94A297.714,297.714,0,0,0-699.468,193.919Zm-492.638-34.78a456.9,456.9,0,0,0-57.953,86.707l68.228,28.183a382.916,382.916,0,0,1,41.949-62.78Zm691.574-.635L-552.6,210.671a381.379,381.379,0,0,1,42.066,62.689l68.154-28.3A455.067,455.067,0,0,0-500.531,158.5Zm-345.961,70.145a224.846,224.846,0,0,1,50.654,5.808l28.324-68.624a297.827,297.827,0,0,0-79.019-10.7,295.8,295.8,0,0,0-78.859,10.715l28.5,68.6a222.253,222.253,0,0,1,50.4-5.8h0ZM-1053.514,48.916h0a456.689,456.689,0,0,0-86.591,58.117l52.234,52.13a381.523,381.523,0,0,1,62.688-42.024l-28.331-68.224Zm414.217-.337-28.183,68.156a383.553,383.553,0,0,1,62.794,41.951l52.078-52.169A459.009,459.009,0,0,0-639.3,48.578ZM-883.245.163a458.994,458.994,0,0,0-52.217,7.318A447.966,447.966,0,0,0-985.6,20.554L-957.252,88.8c11.917-3.652,24.162-6.75,36.393-9.206,12.381-2.487,25.061-4.38,37.686-5.627L-883.246.163Zm73.589-.024.068,73.739c12.618,1.213,25.3,3.076,37.708,5.537,12.223,2.425,24.479,5.493,36.426,9.116l28.16-68.179a449.623,449.623,0,0,0-50.15-12.985A457.644,457.644,0,0,0-809.656.14Z" transform="translate(1546 127)" opacity="0.597" fill="url(#linear-gradient)"/>
  </g>
</svg>
