<svg xmlns="http://www.w3.org/2000/svg" xmlns:xlink="http://www.w3.org/1999/xlink" width="272.001" height="598" viewBox="0 0 272.001 598">
  <defs>
    <linearGradient id="linear-gradient" x1="0.5" y1="0.1" x2="0.5" y2="1" gradientUnits="objectBoundingBox">
      <stop offset="0" stop-color="#fff" stop-opacity="0"/>
      <stop offset="1" stop-color="#fff"/>
    </linearGradient>
    <clipPath id="clip-path">
      <rect x="69" y="62" width="272.001" height="598" fill="none"/>
    </clipPath>
  </defs>
  <g id="sunrise-overleon" transform="translate(-69 -62)" opacity="0.505" clip-path="url(#clip-path)" style="isolation: isolate">
    <path id="Subtraction_2" data-name="Subtraction 2" d="M-886,214h-180.543l-23.467-17.056L-1113.47,214h-51.545l-50.925-37.013L-1266.849,214H-1318.4l-23.468-17.056L-1365.33,214H-1546V-127h660V214Zm-508.485-50.925-34.787.038a213.109,213.109,0,0,0,3.4,24.3,211.438,211.438,0,0,0,6.074,23.353l29.821-21.69a178.6,178.6,0,0,1-4.512-26Zm391.8-.381-34.8.032A176,176,0,0,1-1042,188.939l29.881,21.621a211.156,211.156,0,0,0,6.056-23.458,214.559,214.559,0,0,0,3.371-24.408Zm-213.366-83.476a66.991,66.991,0,0,0-13.379,1.364,66.273,66.273,0,0,0-12.467,3.879,66.7,66.7,0,0,0-11.287,6.127,67.152,67.152,0,0,0-9.838,8.107,67.041,67.041,0,0,0-8.121,9.818,66.412,66.412,0,0,0-6.135,11.261,65.845,65.845,0,0,0-3.88,12.436,66.436,66.436,0,0,0-1.357,13.342v.107a66.025,66.025,0,0,0,2.061,16.318,66.059,66.059,0,0,0,5.8,14.845l28.631-20.806a31.48,31.48,0,0,1-1.793-10.391,31.41,31.41,0,0,1,2.494-12.351,31.76,31.76,0,0,1,2.934-5.4,32.079,32.079,0,0,1,3.887-4.7,32.14,32.14,0,0,1,4.712-3.885,31.931,31.931,0,0,1,5.409-2.937,31.717,31.717,0,0,1,12.393-2.514,31.585,31.585,0,0,1,12.363,2.5,31.9,31.9,0,0,1,5.4,2.929,32.152,32.152,0,0,1,4.711,3.878,32.109,32.109,0,0,1,3.891,4.7,31.79,31.79,0,0,1,2.94,5.389,31.394,31.394,0,0,1,2.513,12.339v.085a31.143,31.143,0,0,1-1.777,10.3l28.682,20.756a66.168,66.168,0,0,0,5.749-14.794,65.931,65.931,0,0,0,2.04-16.252v-.132a66.449,66.449,0,0,0-1.366-13.348,65.847,65.847,0,0,0-3.891-12.44,66.424,66.424,0,0,0-6.147-11.263,67.06,67.06,0,0,0-8.135-9.818,67.163,67.163,0,0,0-9.853-8.1,66.717,66.717,0,0,0-11.3-6.121,66.32,66.32,0,0,0-12.485-3.87,67.039,67.039,0,0,0-13.4-1.35Zm135.227,29.423-32.317,13.383a105.439,105.439,0,0,1,2.7,23.466,105.624,105.624,0,0,1-3.191,25.794l23.577-17.145,13.034,9.437a140.125,140.125,0,0,0,1.2-17.973v-.144a138.47,138.47,0,0,0-1.3-18.787A141.506,141.506,0,0,0-1080.829,108.642Zm-261.092,45.5h0l23.537,17.033a105.251,105.251,0,0,1-3.174-25.476,105.131,105.131,0,0,1,2.715-23.728l-32.331-13.318a139.029,139.029,0,0,0-5,36.928v.15a141.694,141.694,0,0,0,1.2,17.9l13.054-9.491Zm-77.866-73.8a210.423,210.423,0,0,0-6.122,23.6,214.8,214.8,0,0,0-3.4,24.564l34.782-.035a179.117,179.117,0,0,1,2.609-17.735c1.146-5.758,2.6-11.522,4.308-17.131Zm407.44-.4L-1044.5,93.262c1.726,5.6,3.187,11.364,4.344,17.12a178.547,178.547,0,0,1,2.64,17.726l34.794-.031a214.863,214.863,0,0,0-3.453-24.552A209.879,209.879,0,0,0-1012.347,79.941ZM-1285.475,24h0a139.26,139.26,0,0,0-30.154,23.051,140.091,140.091,0,0,0-22.386,29.558l32.39,13.345a105.4,105.4,0,0,1,14.7-18.586,105.2,105.2,0,0,1,18.907-15.08L-1285.475,24Zm138.555-.062-13.369,32.285a105.789,105.789,0,0,1,18.64,14.67,104.853,104.853,0,0,1,15.112,18.859l32.352-13.411a138.848,138.848,0,0,0-23.1-30.074A140.322,140.322,0,0,0-1146.92,23.943ZM-1379.164,7.584a214.865,214.865,0,0,0-27.321,40.782l32.165,13.256a180.068,180.068,0,0,1,19.776-29.528Zm326.028-.3-24.547,24.537a179.351,179.351,0,0,1,19.831,29.486L-1025.722,48A213.994,213.994,0,0,0-1053.136,7.285Zm-163.1,32.992a106.231,106.231,0,0,1,23.88,2.732L-1179,10.732A140.707,140.707,0,0,0-1216.251,5.7a139.749,139.749,0,0,0-37.176,5.04l13.435,32.265a105.006,105.006,0,0,1,23.761-2.727h0Zm-97.6-84.536h0a215.335,215.335,0,0,0-40.821,27.335L-1330.025,7.6a179.891,179.891,0,0,1,29.553-19.766l-13.356-32.089Zm195.274-.159-13.286,32.057a180.85,180.85,0,0,1,29.6,19.731l24.551-24.538A216.414,216.414,0,0,0-1118.554-44.417Zm-115-22.772a216.857,216.857,0,0,0-24.617,3.442,211.574,211.574,0,0,0-23.636,6.149l13.365,32.1c5.618-1.718,11.391-3.175,17.157-4.33,5.837-1.17,11.814-2.06,17.766-2.647l-.034-34.714Zm34.692-.011.032,34.683c5.948.57,11.929,1.447,17.776,2.6,5.762,1.141,11.54,2.583,17.172,4.288l13.276-32.067a212.365,212.365,0,0,0-23.642-6.107,216.22,216.22,0,0,0-24.615-3.4Z" transform="translate(214.001 1546) rotate(90)" opacity="0.996" fill="url(#linear-gradient)"/>
  </g>
</svg>
